<svg width="256" height="210" viewBox="0 0 256 210" fill="none" xmlns="http://www.w3.org/2000/svg">
<path d="M239.197 196.143H16.803C16.6758 196.14 16.5546 196.089 16.4646 195.999C16.3746 195.909 16.323 195.789 16.3205 195.662C16.3205 195.534 16.3714 195.412 16.4619 195.322C16.5523 195.231 16.6751 195.181 16.803 195.181H239.197C239.325 195.181 239.448 195.231 239.538 195.322C239.629 195.412 239.679 195.534 239.679 195.662C239.677 195.789 239.625 195.909 239.535 195.999C239.445 196.089 239.324 196.14 239.197 196.143V196.143Z" fill="#D1D3D4"/>
<path d="M236.157 30.7199V164.293C236.155 166.774 235.164 169.152 233.404 170.905C231.643 172.658 229.256 173.643 226.768 173.643H29.2322C26.7437 173.643 24.3569 172.658 22.5963 170.905C20.8357 169.152 19.8454 166.774 19.8428 164.293V30.7199C19.8428 29.4912 20.0857 28.2746 20.5577 27.1396C21.0297 26.0046 21.7215 24.9734 22.5935 24.1051C23.4655 23.2367 24.5007 22.5482 25.6398 22.0789C26.7789 21.6096 27.9997 21.3687 29.2322 21.37H226.768C228 21.3687 229.221 21.6096 230.36 22.0789C231.499 22.5482 232.534 23.2367 233.406 24.1051C234.279 24.9734 234.97 26.0046 235.442 27.1396C235.914 28.2746 236.157 29.4912 236.157 30.7199V30.7199Z" fill="white"/>
<path d="M226.777 174.086H29.2226C26.6197 174.081 24.1249 173.047 22.2853 171.211C20.4456 169.376 19.4111 166.888 19.4086 164.293V30.7199C19.4086 28.1245 20.4422 25.6352 22.2824 23.799C24.1227 21.9629 26.6189 20.93 29.2226 20.9275H226.777C229.381 20.93 231.877 21.9629 233.718 23.799C235.558 25.6352 236.591 28.1245 236.591 30.7199V164.293C236.589 166.888 235.554 169.376 233.715 171.211C231.875 173.047 229.38 174.081 226.777 174.086ZM29.2226 21.8028C26.8526 21.8079 24.5812 22.7493 22.9062 24.4208C21.2312 26.0922 20.2892 28.3574 20.2867 30.7199V164.293C20.2893 166.655 21.2315 168.919 22.9068 170.589C24.582 172.259 26.8534 173.198 29.2226 173.201H226.777C229.147 173.198 231.418 172.259 233.093 170.589C234.768 168.919 235.711 166.655 235.713 164.293V30.7199C235.711 28.3574 234.769 26.0922 233.094 24.4208C231.419 22.7493 229.147 21.8079 226.777 21.8028H29.2226Z" fill="#231F20"/>
<path d="M236.157 30.7199V149.326H19.8428V30.7199C19.8428 29.4912 20.0857 28.2746 20.5577 27.1396C21.0297 26.0046 21.7215 24.9734 22.5935 24.1051C23.4655 23.2367 24.5007 22.5482 25.6398 22.0789C26.7789 21.6096 27.9997 21.3687 29.2322 21.37H226.768C228 21.3687 229.221 21.6096 230.36 22.0789C231.499 22.5482 232.534 23.2367 233.406 24.1051C234.279 24.9734 234.97 26.0046 235.442 27.1396C235.914 28.2746 236.157 29.4912 236.157 30.7199V30.7199Z" fill="#231F20"/>
<path d="M224.703 32.461H28.7304V140.505H224.703V32.461Z" fill="white"/>
<path d="M224.703 140.947H28.7304C28.6722 140.947 28.6144 140.936 28.5606 140.914C28.5067 140.891 28.4578 140.859 28.4166 140.818C28.3753 140.777 28.3426 140.728 28.3203 140.674C28.298 140.62 28.2865 140.563 28.2865 140.505V32.461C28.2865 32.3436 28.3333 32.2311 28.4166 32.1481C28.4998 32.0651 28.6127 32.0185 28.7304 32.0185H224.703C224.819 32.021 224.929 32.0688 225.01 32.1515C225.091 32.2342 225.137 32.3453 225.137 32.461V140.505C225.137 140.62 225.091 140.732 225.01 140.814C224.929 140.897 224.819 140.945 224.703 140.947ZM29.1647 140.062H224.259V32.8554H29.1647V140.062Z" fill="#231F20"/>
<path d="M128 166.438C127.015 166.438 126.052 166.147 125.233 165.601C124.414 165.055 123.775 164.28 123.399 163.372C123.022 162.464 122.924 161.466 123.117 160.503C123.31 159.54 123.785 158.655 124.482 157.962C125.18 157.268 126.068 156.796 127.034 156.605C128.001 156.415 129.003 156.515 129.912 156.892C130.822 157.269 131.599 157.907 132.145 158.724C132.691 159.542 132.981 160.502 132.979 161.484C132.977 162.799 132.451 164.059 131.518 164.988C130.584 165.917 129.319 166.438 128 166.438V166.438ZM128 157.483C127.206 157.483 126.43 157.717 125.77 158.157C125.11 158.597 124.595 159.222 124.291 159.953C123.987 160.684 123.908 161.489 124.063 162.265C124.218 163.041 124.6 163.754 125.161 164.314C125.723 164.874 126.438 165.255 127.217 165.409C127.996 165.564 128.803 165.484 129.536 165.181C130.27 164.879 130.897 164.366 131.338 163.708C131.779 163.05 132.014 162.276 132.014 161.484C132.012 160.424 131.588 159.408 130.836 158.658C130.083 157.908 129.064 157.485 128 157.483Z" fill="#D1D3D4"/>
<path d="M159.488 190.612C156.931 187.572 156.496 173.662 156.496 173.662H99.5036C99.5036 173.662 99.0693 187.572 96.512 190.612C93.9548 193.651 83.8995 198.605 83.8995 200.366C83.8995 202.126 85.3953 202.77 92.6617 202.77H163.338C170.605 202.77 172.1 202.126 172.1 200.366C172.1 198.605 162.055 193.632 159.488 190.612Z" fill="white"/>
<path d="M163.338 203.184H92.6617C85.4339 203.184 83.4556 202.578 83.4556 200.346C83.4556 199.23 85.6462 197.759 89.5255 195.238C92.2178 193.497 95.0067 191.689 96.1743 190.313C98.6061 187.428 99.0693 173.768 99.0693 173.634C99.0718 173.518 99.1197 173.408 99.2027 173.327C99.2857 173.246 99.3971 173.201 99.5132 173.201H156.506C156.622 173.201 156.734 173.246 156.817 173.327C156.9 173.408 156.947 173.518 156.95 173.634C156.95 173.768 157.404 187.418 159.845 190.313C161.013 191.689 163.802 193.497 166.494 195.238C170.354 197.759 172.564 199.23 172.564 200.346C172.544 202.578 170.566 203.184 163.338 203.184ZM99.9282 174.086C99.8317 176.5 99.2527 188.024 96.8498 190.871C95.605 192.353 92.7582 194.2 90.008 195.979C87.7499 197.441 84.3434 199.654 84.3434 200.346C84.3434 201.501 84.9321 202.27 92.6617 202.27H163.338C171.058 202.27 171.657 201.462 171.657 200.346C171.657 199.654 168.25 197.461 165.992 195.979C163.242 194.2 160.395 192.353 159.15 190.871C156.747 187.986 156.168 176.5 156.072 174.086H99.9282Z" fill="#231F20"/>
<path d="M63.1713 48.6214C63.0941 50.3048 67.0313 82.7121 33.7774 102.941C33.7774 102.941 53.0774 117.746 63.1713 140.457H28.7304V45.8126L63.1713 48.6214Z" fill="white"/>
<path d="M63.1713 140.947H28.7305C28.6722 140.947 28.6144 140.936 28.5606 140.914C28.5067 140.891 28.4578 140.859 28.4166 140.818C28.3754 140.777 28.3427 140.728 28.3203 140.674C28.298 140.62 28.2866 140.563 28.2866 140.505V45.8126C28.2859 45.7509 28.2985 45.6899 28.3235 45.6334C28.3484 45.577 28.3852 45.5266 28.4313 45.4855C28.4757 45.4457 28.5275 45.415 28.5838 45.3952C28.6401 45.3754 28.6998 45.3668 28.7594 45.3701L63.2003 48.1789C63.3146 48.1887 63.4206 48.2423 63.4962 48.3284C63.5718 48.4145 63.611 48.5264 63.6056 48.6406C63.6056 48.7465 63.6056 48.9581 63.6056 49.2947C64.1267 59.7317 62.3221 85.7711 34.5108 102.99C37.6085 105.5 54.438 119.756 63.538 140.332C63.5735 140.395 63.5921 140.466 63.5921 140.538C63.5921 140.611 63.5735 140.682 63.538 140.745C63.4977 140.806 63.4433 140.856 63.3795 140.891C63.3156 140.926 63.2442 140.945 63.1713 140.947V140.947ZM29.1647 140.062H62.4862C52.5081 118.025 33.7002 103.442 33.5362 103.297C33.4764 103.257 33.4276 103.202 33.3938 103.139C33.3601 103.075 33.3424 103.004 33.3424 102.932C33.3424 102.86 33.3601 102.789 33.3938 102.725C33.4276 102.661 33.4764 102.607 33.5362 102.566C61.4536 85.6075 63.2581 59.6932 62.737 49.3332C62.737 49.2178 62.737 49.1216 62.737 49.0254L29.1647 46.3224V140.062Z" fill="#231F20"/>
<path d="M45.975 134.897C45.8503 134.897 45.7304 134.849 45.6405 134.763C45.5505 134.677 45.4975 134.559 45.4925 134.435C45.0582 125.075 37.869 111.099 33.623 103.596C33.2563 102.961 33.2563 102.961 33.2852 102.788C33.2923 102.725 33.3121 102.664 33.3434 102.608C33.3746 102.553 33.4167 102.505 33.4672 102.466C33.5176 102.428 33.5754 102.399 33.637 102.384C33.6986 102.368 33.7628 102.364 33.8257 102.374C33.9091 102.386 33.9877 102.421 34.0537 102.473C34.1198 102.525 34.1709 102.594 34.202 102.672L34.4625 103.124C38.7471 110.704 46.0425 124.835 46.4575 134.397C46.4601 134.46 46.4502 134.523 46.4283 134.582C46.4064 134.641 46.373 134.696 46.3299 134.742C46.2869 134.789 46.2351 134.826 46.1775 134.853C46.1199 134.879 46.0577 134.894 45.9943 134.897H45.975Z" fill="#D1D3D4"/>
<path d="M32.3685 100.431C32.2598 100.429 32.1546 100.392 32.0693 100.325C31.9685 100.247 31.9027 100.132 31.8864 100.006C31.8701 99.88 31.9047 99.7525 31.9825 99.6517C32.05 99.5747 38.1681 91.735 41.7579 74.6415C41.7848 74.514 41.8614 74.4023 41.9709 74.331C42.0804 74.2598 42.2138 74.2348 42.3418 74.2616C42.4697 74.2884 42.5818 74.3647 42.6533 74.4739C42.7248 74.583 42.7498 74.716 42.7229 74.8435C39.0752 92.1582 33.015 99.921 32.7641 100.238C32.7172 100.298 32.6572 100.347 32.5886 100.38C32.5201 100.414 32.4448 100.431 32.3685 100.431V100.431Z" fill="#D1D3D4"/>
<path d="M28.7304 99.9499H35.939C36.7068 99.9499 37.4432 100.254 37.9861 100.795C38.529 101.336 38.834 102.07 38.834 102.836V102.836C38.834 103.601 38.529 104.335 37.9861 104.876C37.4432 105.417 36.7068 105.721 35.939 105.721H28.7304V99.9499Z" fill="white"/>
<path d="M35.939 106.193H28.7304C28.6726 106.194 28.6151 106.184 28.5613 106.163C28.5075 106.141 28.4585 106.11 28.4171 106.069C28.3758 106.029 28.3429 105.981 28.3205 105.928C28.2981 105.875 28.2865 105.818 28.2865 105.76V99.9883C28.2865 99.9302 28.298 99.8727 28.3203 99.819C28.3426 99.7653 28.3753 99.7166 28.4166 99.6755C28.4578 99.6344 28.5067 99.6018 28.5606 99.5796C28.6144 99.5573 28.6722 99.5459 28.7304 99.5459H35.939C36.8348 99.5459 37.6938 99.9006 38.3273 100.532C38.9607 101.163 39.3165 102.02 39.3165 102.913C39.3165 103.806 38.9607 104.662 38.3273 105.293C37.6938 105.925 36.8348 106.279 35.939 106.279V106.193ZM29.184 105.317H35.939C36.5942 105.317 37.2225 105.058 37.6858 104.596C38.1491 104.134 38.4094 103.508 38.4094 102.855C38.4094 102.202 38.1491 101.575 37.6858 101.114C37.2225 100.652 36.5942 100.392 35.939 100.392H29.184V105.317Z" fill="#231F20"/>
<path d="M45.01 86.9639C44.9247 86.9608 44.8416 86.9356 44.769 86.8908C44.6964 86.846 44.6367 86.7832 44.5958 86.7085C44.555 86.6338 44.5343 86.5498 44.5358 86.4647C44.5374 86.3796 44.5611 86.2963 44.6047 86.2232C48.4647 80.1053 51.6878 69.3798 51.7264 69.274C51.7642 69.1533 51.8482 69.0523 51.9602 68.9929C52.0722 68.9335 52.2031 68.9204 52.3247 68.9565C52.4461 68.9944 52.5481 69.0777 52.6093 69.1889C52.6704 69.3001 52.686 69.4305 52.6528 69.5529C52.6528 69.6588 49.3139 80.4997 45.4249 86.733C45.3816 86.8039 45.3207 86.8624 45.248 86.9029C45.1753 86.9433 45.0933 86.9643 45.01 86.9639V86.9639Z" fill="#D1D3D4"/>
<path d="M190.262 48.6214C190.329 50.3048 186.402 82.7121 219.646 102.941C219.646 102.941 200.346 117.746 190.262 140.457H224.693V45.8126L190.262 48.6214Z" fill="white"/>
<path d="M224.703 140.947H190.262C190.188 140.949 190.115 140.932 190.049 140.898C189.983 140.864 189.928 140.814 189.887 140.752C189.846 140.69 189.822 140.619 189.817 140.546C189.812 140.472 189.825 140.398 189.856 140.332C198.956 119.756 215.786 105.5 218.884 102.99C191.072 85.7711 189.268 59.7028 189.789 49.2947C189.789 48.9581 189.789 48.7465 189.789 48.6406C189.784 48.5264 189.823 48.4145 189.898 48.3284C189.974 48.2423 190.08 48.1887 190.194 48.1789L224.664 45.3605C224.724 45.3567 224.783 45.365 224.84 45.3848C224.896 45.4046 224.948 45.4356 224.992 45.4759C225.038 45.517 225.075 45.5674 225.1 45.6238C225.125 45.6802 225.137 45.7413 225.137 45.8029V140.495C225.138 140.553 225.128 140.611 225.107 140.665C225.086 140.719 225.054 140.769 225.014 140.811C224.973 140.853 224.925 140.887 224.872 140.91C224.818 140.933 224.761 140.946 224.703 140.947V140.947ZM190.928 140.062H224.249V46.3224L190.725 49.0254C190.725 49.1216 190.725 49.2178 190.725 49.3332C190.204 59.6932 192.008 85.6075 219.926 102.566C219.986 102.607 220.034 102.661 220.068 102.725C220.102 102.789 220.12 102.86 220.12 102.932C220.12 103.004 220.102 103.075 220.068 103.139C220.034 103.202 219.986 103.257 219.926 103.297C219.723 103.442 200.915 118.025 190.937 140.062H190.928Z" fill="#231F20"/>
<path d="M207.419 134.897C207.356 134.894 207.294 134.879 207.236 134.853C207.179 134.826 207.127 134.789 207.084 134.742C207.041 134.696 207.007 134.641 206.986 134.582C206.964 134.523 206.954 134.46 206.956 134.397C207.4 124.825 214.676 110.695 218.961 103.115L219.212 102.672C219.245 102.594 219.298 102.525 219.366 102.473C219.433 102.421 219.513 102.387 219.598 102.374C219.724 102.36 219.851 102.395 219.951 102.472C220.052 102.55 220.119 102.662 220.138 102.788C220.138 102.961 220.138 102.961 219.8 103.596C215.545 111.089 208.356 125.075 207.921 134.435C207.919 134.498 207.904 134.56 207.877 134.618C207.851 134.675 207.813 134.727 207.766 134.77C207.72 134.812 207.665 134.846 207.606 134.868C207.546 134.889 207.483 134.899 207.419 134.897V134.897Z" fill="#D1D3D4"/>
<path d="M221.055 100.431C220.983 100.429 220.912 100.412 220.847 100.38C220.782 100.349 220.724 100.304 220.679 100.248C220.428 99.9306 214.367 92.1871 210.72 74.8532C210.707 74.7913 210.707 74.7275 210.719 74.6655C210.731 74.6034 210.755 74.5444 210.79 74.4917C210.825 74.439 210.87 74.3936 210.923 74.3583C210.975 74.3229 211.034 74.2982 211.096 74.2856C211.158 74.2715 211.221 74.2698 211.284 74.2807C211.346 74.2915 211.405 74.3147 211.458 74.3487C211.511 74.3828 211.557 74.4271 211.592 74.479C211.628 74.531 211.653 74.5895 211.665 74.6512C215.255 91.735 221.373 99.5747 221.441 99.6613C221.52 99.761 221.556 99.8877 221.541 100.014C221.527 100.14 221.463 100.255 221.364 100.335C221.273 100.397 221.165 100.431 221.055 100.431Z" fill="#D1D3D4"/>
<path d="M224.693 105.75H217.484C216.717 105.75 215.98 105.446 215.437 104.905C214.894 104.364 214.589 103.63 214.589 102.865C214.589 102.099 214.894 101.365 215.437 100.824C215.98 100.283 216.717 99.9787 217.484 99.9787H224.693V105.75Z" fill="white"/>
<path d="M224.703 106.193H217.484C216.589 106.193 215.73 105.838 215.096 105.207C214.463 104.575 214.107 103.719 214.107 102.826C214.107 101.933 214.463 101.077 215.096 100.445C215.73 99.814 216.589 99.4593 217.484 99.4593H224.703C224.819 99.4618 224.929 99.5095 225.01 99.5922C225.091 99.675 225.137 99.7861 225.137 99.9018V105.673C225.15 105.737 225.148 105.803 225.133 105.866C225.117 105.929 225.087 105.987 225.045 106.037C225.003 106.087 224.951 106.127 224.892 106.154C224.832 106.181 224.768 106.194 224.703 106.193V106.193ZM217.484 100.421C216.829 100.421 216.201 100.681 215.738 101.142C215.274 101.604 215.014 102.231 215.014 102.884C215.014 103.537 215.274 104.163 215.738 104.625C216.201 105.087 216.829 105.346 217.484 105.346H224.239V100.421H217.484Z" fill="#231F20"/>
<path d="M208.413 86.9638C208.331 86.9656 208.25 86.945 208.179 86.9044C208.107 86.8637 208.048 86.8045 208.008 86.733C204.148 80.4997 200.809 69.6588 200.78 69.5529C200.759 69.4369 200.781 69.3172 200.843 69.2165C200.904 69.1158 201.001 69.0411 201.114 69.0067C201.227 68.9723 201.349 68.9805 201.457 69.0298C201.564 69.079 201.65 69.1659 201.697 69.274C201.697 69.3798 204.997 80.1053 208.819 86.2232C208.862 86.2963 208.886 86.3796 208.888 86.4647C208.889 86.5498 208.868 86.6338 208.828 86.7085C208.787 86.7832 208.727 86.846 208.654 86.8908C208.582 86.9356 208.499 86.9607 208.413 86.9638V86.9638Z" fill="#D1D3D4"/>
<path d="M35.9776 1.04442H220.022C222.38 1.04442 224.64 1.97782 226.307 3.63927C227.974 5.30072 228.91 7.55413 228.91 9.90378V13.6168H27.0803V9.90378C27.0803 8.73954 27.3105 7.58672 27.7578 6.51123C28.205 5.43573 28.8605 4.45866 29.6868 3.63587C30.5132 2.81307 31.4941 2.1607 32.5735 1.71604C33.6529 1.27138 34.8096 1.04316 35.9776 1.04442V1.04442Z" fill="#67B93E"/>
<path d="M228.92 14.0208H27.0803C26.9757 14.0121 26.8777 13.9667 26.8035 13.8928C26.7293 13.8188 26.6838 13.7211 26.675 13.6168V9.90379C26.6775 7.43757 27.6615 5.07309 29.411 3.3292C31.1604 1.58532 33.5324 0.60449 36.0065 0.601944H220.022C222.491 0.612113 224.856 1.59631 226.599 3.33936C228.342 5.08242 229.322 7.44255 229.325 9.90379V13.6168C229.316 13.7211 229.271 13.8188 229.197 13.8928C229.122 13.9667 229.024 14.0121 228.92 14.0208V14.0208ZM27.5242 13.1359H228.476V9.90379C228.473 7.66973 227.582 5.5279 225.997 3.94817C224.412 2.36845 222.264 1.47984 220.022 1.4773H35.9776C33.7364 1.47984 31.5877 2.36845 30.003 3.94817C28.4182 5.5279 27.5267 7.66973 27.5242 9.90379V13.1359Z" fill="#231F20"/>
<path d="M26.0284 13.5784L0.9095 41.4358H19.0611L40.5903 13.5784H26.0284Z" fill="white"/>
<path d="M19.0611 41.8687H0.909505C0.824035 41.8689 0.74032 41.8445 0.668424 41.7984C0.596528 41.7523 0.539502 41.6865 0.5042 41.6089C0.471647 41.531 0.461629 41.4456 0.475273 41.3623C0.488916 41.279 0.525678 41.2011 0.581401 41.1376L25.71 13.2898C25.7499 13.2416 25.8 13.2028 25.8567 13.1762C25.9135 13.1495 25.9754 13.1358 26.0381 13.1359H40.5999C40.683 13.1355 40.7644 13.1588 40.8345 13.2032C40.9046 13.2475 40.9605 13.3109 40.9956 13.386C41.0404 13.4547 41.0643 13.5349 41.0643 13.6168C41.0643 13.6988 41.0404 13.779 40.9956 13.8477L19.4761 41.7436C19.4229 41.7973 19.3571 41.8369 19.2846 41.8588C19.2121 41.8806 19.1353 41.884 19.0611 41.8687V41.8687ZM1.8938 40.9933H18.8488L39.6928 14.0593H26.1828L1.8938 40.9933Z" fill="#231F20"/>
<path d="M40.5903 13.5784L19.0611 41.4358H37.2224L55.1618 13.5784H40.5903Z" fill="#67B93E"/>
<path d="M37.2225 41.8687H19.0612C18.9796 41.8677 18.8998 41.8449 18.8302 41.8026C18.7606 41.7603 18.7037 41.7 18.6655 41.6282C18.6258 41.5577 18.6049 41.4782 18.6049 41.3973C18.6049 41.3164 18.6258 41.2369 18.6655 41.1664L40.1947 13.2705C40.2361 13.2178 40.2887 13.175 40.3488 13.145C40.4089 13.1151 40.4749 13.0988 40.5421 13.0974H55.1136C55.1929 13.0984 55.2705 13.1207 55.3383 13.1618C55.4061 13.2028 55.4616 13.2613 55.499 13.331C55.5365 13.4008 55.5545 13.4792 55.5512 13.5582C55.5479 13.6373 55.5234 13.714 55.4803 13.7803L37.5892 41.6667C37.5501 41.7284 37.496 41.7793 37.4319 41.8146C37.3677 41.85 37.2957 41.8685 37.2225 41.8687V41.8687ZM19.92 40.9933H36.9426L54.3126 14.0593H40.8026L19.92 40.9933Z" fill="#231F20"/>
<path d="M55.1618 13.5784L37.2225 41.4358H55.3741L69.7333 13.5784H55.1618Z" fill="white"/>
<path d="M55.3741 41.8687H37.2224C37.1443 41.8689 37.0674 41.8486 36.9996 41.8098C36.9318 41.7709 36.8755 41.7149 36.8364 41.6474C36.7957 41.579 36.7741 41.5009 36.7741 41.4214C36.7741 41.3418 36.7957 41.2637 36.8364 41.1953L54.7758 13.2994C54.817 13.2375 54.873 13.1867 54.9386 13.1514C55.0042 13.1162 55.0776 13.0976 55.1521 13.0974H69.7236C69.7976 13.0994 69.8699 13.1198 69.934 13.1568C69.998 13.1937 70.0518 13.2461 70.0904 13.309C70.1285 13.3748 70.1485 13.4495 70.1485 13.5254C70.1485 13.6014 70.1285 13.6761 70.0904 13.7419L55.7408 41.6378C55.7046 41.7043 55.6519 41.7605 55.5877 41.8009C55.5235 41.8413 55.4499 41.8646 55.3741 41.8687V41.8687ZM38.0041 40.9933H55.0846L68.9903 14.0593H55.3837L38.0041 40.9933Z" fill="#231F20"/>
<path d="M69.7333 13.5784L55.3741 41.4358H73.5354L84.2952 13.5784H69.7333Z" fill="#67B93E"/>
<path d="M73.5354 41.8687H55.3741C55.2995 41.8684 55.2262 41.8499 55.1605 41.8146C55.0949 41.7794 55.039 41.7286 54.9977 41.6667C54.9596 41.6008 54.9396 41.5262 54.9396 41.4502C54.9396 41.3742 54.9596 41.2996 54.9977 41.2338L69.3473 13.3379C69.3846 13.2653 69.4413 13.2045 69.5111 13.1621C69.5809 13.1196 69.6612 13.0973 69.7429 13.0974H84.3048C84.3763 13.0976 84.4467 13.115 84.51 13.1481C84.5732 13.1813 84.6276 13.2291 84.6683 13.2877C84.7091 13.3463 84.735 13.4138 84.744 13.4845C84.7529 13.5552 84.7446 13.627 84.7197 13.6938L73.96 41.5897C73.9303 41.6766 73.8725 41.7511 73.7956 41.8016C73.7187 41.8521 73.6272 41.8757 73.5354 41.8687V41.8687ZM56.0978 40.9933H73.2266L83.6486 14.0593H69.9938L56.0978 40.9933Z" fill="#231F20"/>
<path d="M84.2952 13.5784L73.5354 41.4358H91.687L98.8667 13.5784H84.2952Z" fill="white"/>
<path d="M91.6871 41.8687H73.5354C73.4631 41.8708 73.3914 41.8549 73.3268 41.8224C73.2622 41.79 73.2068 41.7419 73.1656 41.6827C73.1244 41.6234 73.0987 41.5549 73.0908 41.4832C73.0829 41.4115 73.0931 41.339 73.1205 41.2723L83.8802 13.4244C83.9117 13.3399 83.9682 13.267 84.0424 13.2155C84.1165 13.1639 84.2047 13.1361 84.2952 13.1359H98.8667C98.9338 13.1373 98.9998 13.1536 99.0599 13.1835C99.12 13.2134 99.1726 13.2563 99.2141 13.309C99.2543 13.3618 99.2821 13.4229 99.2955 13.4878C99.3088 13.5528 99.3074 13.6199 99.2913 13.6842L92.1117 41.5801C92.0809 41.667 92.0231 41.7418 91.9468 41.7937C91.8704 41.8456 91.7794 41.8719 91.6871 41.8687V41.8687ZM74.1723 40.9933H91.33L98.278 14.0593H84.575L74.1723 40.9933Z" fill="#231F20"/>
<path d="M98.8666 13.5784L91.687 41.4358H109.848L113.428 13.5784H98.8666Z" fill="#67B93E"/>
<path d="M109.848 41.8687H91.687C91.6205 41.8691 91.5548 41.8546 91.4947 41.8263C91.4345 41.798 91.3816 41.7566 91.3396 41.7051C91.2973 41.6516 91.2682 41.5888 91.2548 41.522C91.2414 41.4551 91.244 41.386 91.2624 41.3204L98.442 13.4725C98.4655 13.3775 98.5199 13.2929 98.5967 13.232C98.6736 13.1711 98.7685 13.1373 98.8666 13.1359H113.428C113.492 13.1369 113.555 13.1511 113.614 13.1776C113.672 13.2041 113.724 13.2423 113.766 13.2898C113.844 13.3879 113.882 13.5115 113.872 13.6361L110.283 41.532C110.26 41.6294 110.205 41.7162 110.126 41.7776C110.047 41.839 109.949 41.8712 109.848 41.8687ZM92.295 40.9933H109.491L112.965 14.0593H99.2044L92.295 40.9933Z" fill="#231F20"/>
<path d="M113.428 13.5784L109.848 41.4358H128V13.5784H113.428Z" fill="white"/>
<path d="M128 41.8687H109.848C109.785 41.8707 109.722 41.8588 109.663 41.8339C109.605 41.809 109.553 41.7716 109.511 41.7244C109.433 41.6262 109.395 41.5027 109.404 41.3781L112.994 13.4822C113.006 13.3759 113.057 13.2778 113.137 13.2067C113.217 13.1357 113.321 13.0967 113.428 13.0974H128C128.117 13.0998 128.228 13.1473 128.311 13.2297C128.394 13.3122 128.441 13.4233 128.444 13.5399V41.4358C128.441 41.5515 128.393 41.6616 128.311 41.7425C128.228 41.8234 128.116 41.8687 128 41.8687V41.8687ZM110.35 40.9933H127.556V14.0593H113.824L110.35 40.9933Z" fill="#231F20"/>
<path d="M128 13.5784V41.4358H146.152L142.572 13.5784H128Z" fill="#67B93E"/>
<path d="M146.152 41.8687H128C127.884 41.8687 127.772 41.8234 127.689 41.7425C127.607 41.6616 127.559 41.5515 127.556 41.4358V13.6168C127.559 13.5003 127.606 13.3891 127.689 13.3067C127.772 13.2242 127.883 13.1768 128 13.1744H142.572C142.679 13.1737 142.783 13.2126 142.863 13.2837C142.943 13.3547 142.994 13.4528 143.006 13.5591L146.596 41.455C146.605 41.5796 146.567 41.7032 146.489 41.8013C146.441 41.8349 146.386 41.8582 146.328 41.8698C146.269 41.8814 146.21 41.881 146.152 41.8687V41.8687ZM128.444 40.9933H145.65L142.176 14.0593H128.444V40.9933Z" fill="#231F20"/>
<path d="M142.572 13.5784L146.152 41.4358H164.313L157.133 13.5784H142.572Z" fill="white"/>
<path d="M164.313 41.8687H146.152C146.046 41.8696 145.943 41.832 145.863 41.7629C145.783 41.6938 145.731 41.598 145.717 41.4935L142.128 13.5976C142.118 13.473 142.156 13.3495 142.234 13.2513C142.276 13.2038 142.328 13.1656 142.386 13.1391C142.445 13.1126 142.508 13.0984 142.571 13.0974H157.133C157.231 13.0988 157.326 13.1326 157.403 13.1935C157.48 13.2545 157.534 13.339 157.558 13.4341L164.738 41.2819C164.756 41.3475 164.759 41.4166 164.745 41.4835C164.732 41.5504 164.703 41.6131 164.66 41.6667C164.622 41.7252 164.571 41.774 164.511 41.8091C164.451 41.8442 164.383 41.8646 164.313 41.8687V41.8687ZM146.547 40.9933H163.705L156.757 14.0593H143.073L146.547 40.9933Z" fill="#231F20"/>
<path d="M157.133 13.5784L164.313 41.4358H182.465L171.705 13.5784H157.133Z" fill="#67B93E"/>
<path d="M182.465 41.8687H164.313C164.216 41.8694 164.121 41.8376 164.044 41.7783C163.967 41.719 163.912 41.6356 163.888 41.5416L156.709 13.6457C156.693 13.5814 156.691 13.5143 156.705 13.4493C156.718 13.3844 156.746 13.3233 156.786 13.2705C156.827 13.2178 156.88 13.175 156.94 13.145C157 13.1151 157.066 13.0988 157.133 13.0974H171.705C171.795 13.0976 171.883 13.1254 171.958 13.177C172.032 13.2285 172.088 13.3015 172.12 13.386L182.88 41.2819C182.907 41.3486 182.917 41.4211 182.909 41.4928C182.901 41.5645 182.876 41.633 182.834 41.6923C182.793 41.7515 182.738 41.7996 182.673 41.8321C182.609 41.8645 182.537 41.8804 182.465 41.8783V41.8687ZM164.67 40.9933H181.847L171.425 14.0593H157.722L164.67 40.9933Z" fill="#231F20"/>
<path d="M171.705 13.5784L182.465 41.4358H200.626L186.267 13.5784H171.705Z" fill="white"/>
<path d="M200.626 41.8687H182.465C182.376 41.8714 182.289 41.8458 182.216 41.7956C182.143 41.7454 182.088 41.6732 182.059 41.5897L171.29 13.6938C171.265 13.627 171.257 13.5552 171.266 13.4845C171.275 13.4138 171.301 13.3463 171.341 13.2877C171.382 13.2291 171.436 13.1813 171.5 13.1481C171.563 13.115 171.633 13.0976 171.705 13.0974H186.267C186.348 13.0973 186.429 13.1196 186.498 13.1621C186.568 13.2045 186.625 13.2653 186.662 13.3379L201.012 41.2338C201.05 41.2996 201.07 41.3742 201.07 41.4502C201.07 41.5262 201.05 41.6008 201.012 41.6666C200.97 41.7299 200.912 41.7816 200.845 41.8169C200.777 41.8522 200.702 41.87 200.626 41.8687V41.8687ZM182.773 40.9933H199.902L186.006 14.0593H172.39L182.773 40.9933Z" fill="#231F20"/>
<path d="M186.267 13.5784L200.626 41.4358H218.778L200.838 13.5784H186.267Z" fill="#67B93E"/>
<path d="M218.778 41.8687H200.626C200.545 41.8697 200.466 41.8488 200.396 41.8081C200.326 41.7674 200.269 41.7085 200.23 41.6378L185.9 13.7804C185.862 13.7146 185.842 13.6399 185.842 13.5639C185.842 13.4879 185.862 13.4133 185.9 13.3475C185.939 13.2845 185.992 13.2322 186.056 13.1952C186.12 13.1583 186.193 13.1379 186.267 13.1359H200.838C200.913 13.1361 200.986 13.1547 201.052 13.1899C201.117 13.2251 201.173 13.276 201.215 13.3379L219.154 41.2338C219.195 41.3022 219.216 41.3803 219.216 41.4598C219.216 41.5394 219.195 41.6175 219.154 41.6859C219.111 41.7449 219.054 41.7924 218.989 41.8243C218.923 41.8562 218.851 41.8714 218.778 41.8687V41.8687ZM200.896 40.9933H217.977L200.607 14.0593H187L200.896 40.9933Z" fill="#231F20"/>
<path d="M200.838 13.5784L218.778 41.4358H236.939L215.41 13.5784H200.838Z" fill="white"/>
<path d="M236.939 41.8687H218.778C218.704 41.8686 218.632 41.85 218.568 41.8147C218.504 41.7793 218.45 41.7284 218.411 41.6667L200.472 13.8188C200.428 13.7524 200.404 13.6757 200.401 13.5967C200.397 13.5177 200.415 13.4392 200.453 13.3695C200.49 13.2998 200.546 13.2413 200.613 13.2002C200.681 13.1591 200.759 13.1369 200.838 13.1359H215.41C215.477 13.1373 215.543 13.1536 215.603 13.1835C215.663 13.2134 215.716 13.2563 215.757 13.309L237.286 41.2049C237.334 41.2712 237.363 41.3485 237.371 41.4295C237.38 41.5104 237.367 41.5921 237.334 41.6667C237.291 41.7313 237.233 41.7839 237.163 41.8193C237.094 41.8547 237.017 41.8717 236.939 41.8687V41.8687ZM219.019 40.9933H236.08L215.226 14.0593H201.716L219.019 40.9933Z" fill="#231F20"/>
<path d="M215.41 13.5784L236.939 41.4358H255.091L229.972 13.5784H215.41Z" fill="#67B93E"/>
<path d="M255.091 41.8687H236.939C236.871 41.8698 236.803 41.8558 236.742 41.8274C236.68 41.7991 236.625 41.7573 236.582 41.7051L215.053 13.8092C215.01 13.7397 214.987 13.6598 214.987 13.5784C214.987 13.4969 215.01 13.417 215.053 13.3475C215.087 13.2717 215.142 13.2076 215.213 13.1631C215.283 13.1187 215.365 13.0958 215.448 13.0974H230.01C230.073 13.0973 230.135 13.1111 230.192 13.1377C230.248 13.1643 230.298 13.2031 230.338 13.2513L255.428 41.1472C255.484 41.2108 255.521 41.2886 255.534 41.3719C255.548 41.4552 255.538 41.5406 255.505 41.6186C255.468 41.6959 255.409 41.7607 255.335 41.8051C255.262 41.8495 255.177 41.8716 255.091 41.8687V41.8687ZM237.151 40.9933H254.106L229.779 14.0593H216.269L237.151 40.9933Z" fill="#231F20"/>
<path d="M0.9095 41.4358H19.0611V56.7208C19.0611 59.0654 18.1268 61.3139 16.4637 62.9717C14.8005 64.6296 12.5448 65.561 10.1928 65.561H9.77785C7.42581 65.561 5.17012 64.6296 3.50698 62.9717C1.84384 61.3139 0.9095 59.0654 0.9095 56.7208V41.4358Z" fill="white"/>
<path d="M10.1928 66.0034H9.77785C7.30887 66.0009 4.94175 65.0221 3.19592 63.2818C1.45009 61.5415 0.468154 59.1819 0.465599 56.7208V41.4358C0.468062 41.3192 0.515623 41.2081 0.598343 41.1256C0.681062 41.0432 0.792548 40.9958 0.909505 40.9933H19.0612C19.1789 40.9933 19.2918 41.0399 19.375 41.1229C19.4583 41.2059 19.5051 41.3184 19.5051 41.4358V56.7208C19.5025 59.1819 18.5206 61.5415 16.7747 63.2818C15.0289 65.0221 12.6618 66.0009 10.1928 66.0034V66.0034ZM1.3534 41.8687V56.7208C1.35596 58.9472 2.24435 61.0817 3.82368 62.656C5.40302 64.2303 7.54433 65.1159 9.77785 65.1185H10.1928C12.4272 65.1159 14.5695 64.2307 16.1504 62.6566C17.7313 61.0826 18.6218 58.9481 18.6269 56.7208V41.8687H1.3534Z" fill="#231F20"/>
<path d="M19.0611 41.4358H37.2128V56.7208C37.2128 59.0654 36.2785 61.3139 34.6153 62.9717C32.9522 64.6296 30.6965 65.561 28.3445 65.561H27.9295C25.5775 65.561 23.3218 64.6296 21.6586 62.9717C19.9955 61.3139 19.0611 59.0654 19.0611 56.7208V41.4358Z" fill="#67B93E"/>
<path d="M28.3444 66.0034H27.9391C25.4702 66.0009 23.103 65.0221 21.3572 63.2818C19.6114 61.5415 18.6295 59.1819 18.6269 56.7208V41.4358C18.6269 41.3201 18.6723 41.209 18.7535 41.1263C18.8347 41.0435 18.9451 40.9958 19.0611 40.9933H37.2224C37.3385 40.9958 37.4489 41.0435 37.5301 41.1263C37.6113 41.209 37.6567 41.3201 37.6567 41.4358V56.7208C37.6541 59.1819 36.6722 61.5415 34.9264 63.2818C33.1805 65.0221 30.8134 66.0009 28.3444 66.0034V66.0034ZM19.505 41.8687V56.7208C19.5102 58.9481 20.4007 61.0826 21.9816 62.6566C23.5624 64.2307 25.7047 65.1159 27.9391 65.1185H28.3444C30.5789 65.1159 32.7212 64.2307 34.302 62.6566C35.8829 61.0826 36.7734 58.9481 36.7785 56.7208V41.8687H19.505Z" fill="#231F20"/>
<path d="M37.2225 41.4358H55.3741V56.7208C55.3741 59.0654 54.4398 61.3139 52.7766 62.9717C51.1135 64.6296 48.8578 65.561 46.5058 65.561H46.0908C43.7388 65.561 41.4831 64.6296 39.8199 62.9717C38.1568 61.3139 37.2225 59.0654 37.2225 56.7208V41.4358Z" fill="white"/>
<path d="M46.5058 66.0034H46.0908C43.6218 66.0009 41.2547 65.0221 39.5089 63.2818C37.763 61.5415 36.7811 59.1819 36.7785 56.7208V41.4358C36.781 41.3192 36.8286 41.2081 36.9113 41.1256C36.994 41.0432 37.1055 40.9958 37.2224 40.9933H55.3741C55.4911 40.9958 55.6025 41.0432 55.6853 41.1256C55.768 41.2081 55.8155 41.3192 55.818 41.4358V56.7208C55.8154 59.1819 54.8335 61.5415 53.0877 63.2818C51.3419 65.0221 48.9747 66.0009 46.5058 66.0034V66.0034ZM37.6567 41.8687V56.7208C37.6618 58.9481 38.5523 61.0826 40.1332 62.6566C41.7141 64.2307 43.8564 65.1159 46.0908 65.1185H46.5058C48.7402 65.1159 50.8825 64.2307 52.4633 62.6566C54.0442 61.0826 54.9347 58.9481 54.9399 56.7208V41.8687H37.6567Z" fill="#231F20"/>
<path d="M55.3741 41.4358H73.5258V56.7208C73.5258 59.0654 72.5914 61.3139 70.9283 62.9717C69.2651 64.6296 67.0094 65.561 64.6574 65.561H64.2424C61.8904 65.561 59.6347 64.6296 57.9716 62.9717C56.3084 61.3139 55.3741 59.0654 55.3741 56.7208V41.4358V41.4358Z" fill="#67B93E"/>
<path d="M64.6574 66.0034H64.2521C61.7831 66.0009 59.416 65.0221 57.6702 63.2818C55.9243 61.5415 54.9424 59.1819 54.9398 56.7208V41.4358C54.9398 41.3201 54.9853 41.209 55.0664 41.1263C55.1476 41.0435 55.258 40.9958 55.3741 40.9933H73.5354C73.6514 40.9958 73.7619 41.0435 73.8431 41.1263C73.9242 41.209 73.9697 41.3201 73.9696 41.4358V56.7208C73.9671 59.1819 72.9852 61.5415 71.2393 63.2818C69.4935 65.0221 67.1264 66.0009 64.6574 66.0034ZM55.818 41.8687V56.7208C55.8231 58.9481 56.7136 61.0826 58.2945 62.6566C59.8754 64.2307 62.0177 65.1159 64.2521 65.1185H64.6574C66.8918 65.1159 69.0341 64.2307 70.615 62.6566C72.1958 61.0826 73.0864 58.9481 73.0915 56.7208V41.8687H55.818Z" fill="#231F20"/>
<path d="M73.5354 41.4358H91.687V56.7208C91.687 59.0654 90.7527 61.3139 89.0896 62.9717C87.4264 64.6296 85.1707 65.561 82.8187 65.561H82.4037C80.0517 65.561 77.796 64.6296 76.1329 62.9717C74.4697 61.3139 73.5354 59.0654 73.5354 56.7208V41.4358Z" fill="white"/>
<path d="M82.8187 66.0034H82.4037C79.9348 66.0009 77.5676 65.0221 75.8218 63.2818C74.076 61.5415 73.0941 59.1819 73.0915 56.7208V41.4358C73.0915 41.3184 73.1383 41.2059 73.2215 41.1229C73.3048 41.0399 73.4177 40.9933 73.5354 40.9933H91.687C91.804 40.9958 91.9155 41.0432 91.9982 41.1256C92.0809 41.2081 92.1285 41.3192 92.1309 41.4358V56.7208C92.1284 59.1819 91.1465 61.5415 89.4006 63.2818C87.6548 65.0221 85.2877 66.0009 82.8187 66.0034ZM73.96 41.8687V56.7208C73.9651 58.9481 74.8556 61.0826 76.4365 62.6566C78.0174 64.2307 80.1597 65.1159 82.3941 65.1185H82.809C85.0426 65.1159 87.1839 64.2303 88.7632 62.656C90.3425 61.0817 91.2309 58.9472 91.2335 56.7208V41.8687H73.96Z" fill="#231F20"/>
<path d="M91.687 41.4358H109.839V56.7208C109.839 59.0637 108.906 61.3108 107.245 62.9683C105.584 64.6259 103.33 65.5584 100.98 65.561H100.565C98.213 65.561 95.9573 64.6296 94.2942 62.9717C92.631 61.3139 91.6967 59.0654 91.6967 56.7208V41.4358H91.687Z" fill="#67B93E"/>
<path d="M100.98 66.0034H100.575C98.1041 66.0034 95.7344 65.0258 93.9865 63.2852C92.2386 61.5447 91.2553 59.1836 91.2528 56.7208V41.4358C91.2553 41.3192 91.3028 41.2081 91.3855 41.1256C91.4683 41.0432 91.5797 40.9958 91.6967 40.9933H109.858C109.974 40.9958 110.085 41.0435 110.166 41.1263C110.247 41.209 110.292 41.3201 110.292 41.4358V56.7208C110.29 59.1819 109.308 61.5415 107.562 63.2818C105.816 65.0221 103.449 66.0009 100.98 66.0034V66.0034ZM92.1406 41.8687V56.7208C92.1457 58.9481 93.0362 61.0826 94.6171 62.6566C96.198 64.2307 98.3403 65.1159 100.575 65.1185H100.98C103.214 65.1159 105.357 64.2307 106.938 62.6566C108.518 61.0826 109.409 58.9481 109.414 56.7208V41.8687H92.1406Z" fill="#231F20"/>
<path d="M109.848 41.4358H128V56.7208C128 59.0654 127.066 61.3139 125.403 62.9717C123.739 64.6296 121.484 65.561 119.132 65.561H118.717C116.365 65.561 114.109 64.6296 112.446 62.9717C110.783 61.3139 109.848 59.0654 109.848 56.7208V41.4358Z" fill="white"/>
<path d="M119.132 66.0034H118.717C116.248 66.0009 113.881 65.0221 112.135 63.2818C110.389 61.5415 109.407 59.1819 109.404 56.7208V41.4358C109.404 41.3184 109.451 41.2059 109.534 41.1229C109.618 41.0399 109.731 40.9933 109.848 40.9933H128C128.117 40.9958 128.228 41.0432 128.311 41.1256C128.394 41.2081 128.441 41.3192 128.444 41.4358V56.7208C128.441 59.1819 127.459 61.5415 125.714 63.2818C123.968 65.0221 121.601 66.0009 119.132 66.0034V66.0034ZM110.283 41.8687V56.7208C110.288 58.9481 111.178 61.0826 112.759 62.6566C114.34 64.2307 116.482 65.1159 118.717 65.1185H119.132C121.365 65.1159 123.506 64.2303 125.086 62.656C126.665 61.0817 127.554 58.9472 127.556 56.7208V41.8687H110.283Z" fill="#231F20"/>
<path d="M128 41.4358H146.152V56.7208C146.152 59.0654 145.217 61.3139 143.554 62.9717C141.891 64.6296 139.635 65.561 137.283 65.561H136.868C134.516 65.561 132.261 64.6296 130.597 62.9717C128.934 61.3139 128 59.0654 128 56.7208V41.4358Z" fill="#67B93E"/>
<path d="M137.283 66.0034H136.868C134.399 66.0009 132.032 65.0221 130.286 63.2818C128.541 61.5415 127.559 59.1819 127.556 56.7208V41.4358C127.559 41.3192 127.606 41.2081 127.689 41.1256C127.772 41.0432 127.883 40.9958 128 40.9933H146.152C146.269 40.9933 146.382 41.0399 146.466 41.1229C146.549 41.2059 146.596 41.3184 146.596 41.4358V56.7208C146.593 59.1819 145.611 61.5415 143.865 63.2818C142.119 65.0221 139.752 66.0009 137.283 66.0034V66.0034ZM128.444 41.8687V56.7208C128.446 58.9472 129.335 61.0817 130.914 62.656C132.494 64.2303 134.635 65.1159 136.868 65.1185H137.283C139.518 65.1159 141.66 64.2307 143.241 62.6566C144.822 61.0826 145.712 58.9481 145.717 56.7208V41.8687H128.444Z" fill="#231F20"/>
<path d="M146.152 41.4358H164.303V56.7208C164.303 59.0654 163.369 61.3139 161.706 62.9717C160.043 64.6296 157.787 65.561 155.435 65.561H155.02C152.668 65.561 150.412 64.6296 148.749 62.9717C147.086 61.3139 146.152 59.0654 146.152 56.7208V41.4358Z" fill="white"/>
<path d="M155.435 66.0034H155.02C152.551 66.0009 150.184 65.0221 148.438 63.2818C146.692 61.5415 145.71 59.1819 145.708 56.7208V41.4358C145.708 41.3201 145.753 41.209 145.834 41.1263C145.916 41.0435 146.026 40.9958 146.142 40.9933H164.303C164.42 40.9958 164.532 41.0432 164.614 41.1256C164.697 41.2081 164.745 41.3192 164.747 41.4358V56.7208C164.745 59.1819 163.763 61.5415 162.017 63.2818C160.271 65.0221 157.904 66.0009 155.435 66.0034V66.0034ZM146.596 41.8687V56.7208C146.601 58.9481 147.491 61.0826 149.072 62.6566C150.653 64.2307 152.795 65.1159 155.03 65.1185H155.435C157.669 65.1159 159.812 64.2307 161.393 62.6566C162.973 61.0826 163.864 58.9481 163.869 56.7208V41.8687H146.596Z" fill="#231F20"/>
<path d="M164.313 41.4358H182.465V56.7208C182.465 59.0654 181.53 61.3139 179.867 62.9717C178.204 64.6296 175.948 65.561 173.596 65.561H173.181C170.829 65.561 168.574 64.6296 166.91 62.9717C165.247 61.3139 164.313 59.0654 164.313 56.7208V41.4358Z" fill="#67B93E"/>
<path d="M173.596 66.0034H173.181C170.712 66.0009 168.345 65.0221 166.599 63.2818C164.854 61.5415 163.872 59.1819 163.869 56.7208V41.4358C163.872 41.3192 163.919 41.2081 164.002 41.1256C164.085 41.0432 164.196 40.9958 164.313 40.9933H182.465C182.582 40.9933 182.695 41.0399 182.778 41.1229C182.862 41.2059 182.908 41.3184 182.908 41.4358V56.7208C182.906 59.1819 181.924 61.5415 180.178 63.2818C178.432 65.0221 176.065 66.0009 173.596 66.0034V66.0034ZM164.757 41.8687V56.7208C164.759 58.9472 165.648 61.0817 167.227 62.656C168.806 64.2303 170.948 65.1159 173.181 65.1185H173.596C175.832 65.1185 177.977 64.2343 179.56 62.66C181.143 61.0857 182.035 58.9498 182.04 56.7208V41.8687H164.757Z" fill="#231F20"/>
<path d="M182.465 41.4358H200.616V56.7208C200.616 59.0654 199.682 61.3139 198.019 62.9717C196.356 64.6296 194.1 65.561 191.748 65.561H191.333C188.981 65.561 186.725 64.6296 185.062 62.9717C183.399 61.3139 182.465 59.0654 182.465 56.7208V41.4358Z" fill="white"/>
<path d="M191.748 66.0034H191.343C188.875 65.9983 186.511 65.0184 184.767 63.2784C183.023 61.5384 182.043 59.1803 182.04 56.7208V41.4358C182.04 41.3201 182.085 41.209 182.167 41.1263C182.248 41.0435 182.358 40.9958 182.474 40.9933H200.636C200.752 40.9958 200.862 41.0435 200.943 41.1263C201.024 41.209 201.07 41.3201 201.07 41.4358V56.7208C201.067 59.1836 200.084 61.5447 198.336 63.2852C196.588 65.0258 194.219 66.0034 191.748 66.0034V66.0034ZM182.908 41.8687V56.7208C182.914 58.9481 183.804 61.0826 185.385 62.6566C186.966 64.2307 189.108 65.1159 191.343 65.1185H191.748C193.982 65.1159 196.125 64.2307 197.705 62.6566C199.286 61.0826 200.177 58.9481 200.182 56.7208V41.8687H182.908Z" fill="#231F20"/>
<path d="M200.626 41.4358H218.778V56.7208C218.778 59.0654 217.843 61.3139 216.18 62.9717C214.517 64.6296 212.261 65.561 209.909 65.561H209.494C207.142 65.561 204.887 64.6296 203.223 62.9717C201.56 61.3139 200.626 59.0654 200.626 56.7208V41.4358Z" fill="#67B93E"/>
<path d="M209.909 66.0034H209.494C207.025 66.0009 204.658 65.0221 202.912 63.2818C201.166 61.5415 200.185 59.1819 200.182 56.7208V41.4358C200.184 41.3192 200.232 41.2081 200.315 41.1256C200.397 41.0432 200.509 40.9958 200.626 40.9933H218.778C218.895 40.9958 219.006 41.0432 219.089 41.1256C219.171 41.2081 219.219 41.3192 219.221 41.4358V56.7208C219.219 59.1819 218.237 61.5415 216.491 63.2818C214.745 65.0221 212.378 66.0009 209.909 66.0034ZM201.06 41.8687V56.7208C201.065 58.9481 201.956 61.0826 203.537 62.6566C205.118 64.2307 207.26 65.1159 209.494 65.1185H209.909C212.143 65.1159 214.284 64.2303 215.863 62.656C217.443 61.0817 218.331 58.9472 218.334 56.7208V41.8687H201.06Z" fill="#231F20"/>
<path d="M218.778 41.4358H236.929V56.7208C236.929 59.0654 235.995 61.3139 234.332 62.9717C232.669 64.6296 230.413 65.561 228.061 65.561H227.646C225.294 65.561 223.038 64.6296 221.375 62.9717C219.712 61.3139 218.778 59.0654 218.778 56.7208V41.4358Z" fill="white"/>
<path d="M228.061 66.0034H227.656C225.185 66.0034 222.815 65.0258 221.067 63.2852C219.319 61.5447 218.336 59.1836 218.334 56.7208V41.4358C218.336 41.3192 218.384 41.2081 218.466 41.1256C218.549 41.0432 218.661 40.9958 218.778 40.9933H236.939C237.055 40.9958 237.165 41.0435 237.247 41.1263C237.328 41.209 237.373 41.3201 237.373 41.4358V56.7208C237.371 59.1819 236.389 61.5415 234.643 63.2818C232.897 65.0221 230.53 66.0009 228.061 66.0034V66.0034ZM219.221 41.8687V56.7208C219.227 58.9481 220.117 61.0826 221.698 62.6566C223.279 64.2307 225.421 65.1159 227.656 65.1185H228.061C230.295 65.1159 232.438 64.2307 234.018 62.6566C235.599 61.0826 236.49 58.9481 236.495 56.7208V41.8687H219.221Z" fill="#231F20"/>
<path d="M236.939 41.4358H255.091V56.7208C255.091 59.0654 254.156 61.3139 252.493 62.9717C250.83 64.6296 248.574 65.561 246.222 65.561H245.807C243.455 65.561 241.199 64.6296 239.536 62.9717C237.873 61.3139 236.939 59.0654 236.939 56.7208V41.4358Z" fill="#67B93E"/>
<path d="M246.222 66.0034H245.807C243.338 66.0009 240.971 65.0221 239.225 63.2818C237.479 61.5415 236.497 59.1819 236.495 56.7208V41.4358C236.495 41.3184 236.542 41.2059 236.625 41.1229C236.708 41.0399 236.821 40.9933 236.939 40.9933H255.09C255.207 40.9958 255.319 41.0432 255.402 41.1256C255.484 41.2081 255.532 41.3192 255.534 41.4358V56.7208C255.532 59.1819 254.55 61.5415 252.804 63.2818C251.058 65.0221 248.691 66.0009 246.222 66.0034ZM237.373 41.8687V56.7208C237.378 58.9481 238.269 61.0826 239.85 62.6566C241.43 64.2307 243.573 65.1159 245.807 65.1185H246.222C248.456 65.1159 250.597 64.2303 252.176 62.656C253.756 61.0817 254.644 58.9472 254.647 56.7208V41.8687H237.373Z" fill="#231F20"/>
<path d="M186.267 111.733H69.7333C69.6053 111.733 69.4826 111.683 69.3921 111.593C69.3016 111.502 69.2508 111.38 69.2508 111.253V74.757C69.2508 74.6294 69.3016 74.5071 69.3921 74.4169C69.4826 74.3267 69.6053 74.276 69.7333 74.276H186.267C186.395 74.276 186.517 74.3267 186.608 74.4169C186.698 74.5071 186.749 74.6294 186.749 74.757V111.253C186.749 111.38 186.698 111.502 186.608 111.593C186.517 111.683 186.395 111.733 186.267 111.733ZM70.2158 110.772H185.784V75.2379H70.2158V110.772Z" fill="#D1D3D4"/>
<path d="M186.267 139.764C186.139 139.764 186.016 139.713 185.926 139.623C185.835 139.533 185.784 139.411 185.784 139.283V116.399H70.2158V139.283C70.2158 139.411 70.165 139.533 70.0745 139.623C69.984 139.713 69.8612 139.764 69.7333 139.764C69.6053 139.764 69.4826 139.713 69.3921 139.623C69.3016 139.533 69.2508 139.411 69.2508 139.283V115.918C69.2508 115.79 69.3016 115.668 69.3921 115.578C69.4826 115.488 69.6053 115.437 69.7333 115.437H186.267C186.395 115.437 186.517 115.488 186.608 115.578C186.698 115.668 186.749 115.79 186.749 115.918V139.283C186.749 139.411 186.698 139.533 186.608 139.623C186.517 139.713 186.395 139.764 186.267 139.764Z" fill="#D1D3D4"/>
<path d="M247.013 200.568H202.382L208.153 165.207H241.243L247.013 200.568Z" fill="white"/>
<path d="M247.013 201.049H202.382C202.311 201.049 202.241 201.035 202.176 201.007C202.112 200.979 202.053 200.937 202.006 200.885C201.962 200.83 201.93 200.766 201.912 200.699C201.894 200.631 201.89 200.56 201.9 200.491L207.69 165.13C207.71 165.017 207.769 164.915 207.858 164.841C207.946 164.767 208.057 164.727 208.172 164.726H241.262C241.377 164.727 241.489 164.767 241.577 164.841C241.665 164.915 241.724 165.017 241.745 165.13L247.535 200.491C247.546 200.561 247.541 200.633 247.521 200.701C247.501 200.769 247.466 200.832 247.419 200.885C247.369 200.943 247.307 200.988 247.236 201.016C247.166 201.045 247.089 201.056 247.013 201.049V201.049ZM202.942 200.087H246.454L240.837 165.688H208.558L202.942 200.087Z" fill="#231F20"/>
<path d="M214.676 170.411H214.599C214.473 170.388 214.362 170.316 214.288 170.212C214.214 170.108 214.184 169.979 214.203 169.853C214.3 169.276 216.645 155.588 224.703 155.588C232.76 155.588 235.096 169.276 235.192 169.853C235.212 169.979 235.182 170.108 235.108 170.212C235.034 170.316 234.922 170.388 234.797 170.411C234.67 170.431 234.541 170.401 234.436 170.327C234.332 170.253 234.26 170.142 234.237 170.017C234.237 169.882 231.93 156.55 224.703 156.55C217.475 156.55 215.178 169.882 215.159 170.017C215.137 170.128 215.076 170.228 214.988 170.3C214.9 170.372 214.79 170.411 214.676 170.411V170.411Z" fill="#231F20"/>
<path d="M215.989 203.501H185.263L189.229 179.155H212.013L215.989 203.501Z" fill="white"/>
<path d="M215.989 203.982H185.263C185.194 203.98 185.125 203.964 185.063 203.934C185 203.904 184.944 203.861 184.899 203.809C184.854 203.757 184.82 203.695 184.799 203.629C184.779 203.563 184.773 203.493 184.781 203.424L188.795 179.068C188.811 178.955 188.868 178.852 188.955 178.778C189.042 178.704 189.153 178.663 189.268 178.664H212.051C212.166 178.663 212.277 178.704 212.364 178.778C212.451 178.852 212.508 178.955 212.524 179.068L216.5 203.405C216.511 203.474 216.507 203.544 216.489 203.611C216.47 203.678 216.437 203.74 216.392 203.793C216.348 203.846 216.292 203.888 216.229 203.918C216.166 203.947 216.097 203.963 216.027 203.963L215.989 203.982ZM185.832 203.02H215.419L211.608 179.646H189.644L185.832 203.02Z" fill="#231F20"/>
<path d="M207.516 182.916C207.402 182.915 207.292 182.874 207.205 182.8C207.119 182.726 207.061 182.624 207.043 182.512C207.043 182.416 205.48 173.374 200.626 173.374C195.772 173.374 194.218 182.416 194.199 182.512C194.179 182.64 194.108 182.754 194.003 182.83C193.898 182.905 193.767 182.937 193.639 182.916C193.511 182.896 193.397 182.826 193.321 182.721C193.245 182.616 193.214 182.486 193.234 182.358C193.302 181.954 194.932 172.412 200.607 172.412C206.281 172.412 207.912 181.954 207.979 182.358C207.989 182.421 207.986 182.485 207.971 182.546C207.956 182.607 207.928 182.665 207.891 182.716C207.853 182.767 207.806 182.81 207.751 182.843C207.697 182.876 207.637 182.897 207.574 182.907L207.516 182.916Z" fill="#231F20"/>
<path d="M180.747 84.6071H120.135C120.007 84.6071 119.885 84.5564 119.794 84.4662C119.704 84.376 119.653 84.2537 119.653 84.1262C119.655 83.9994 119.707 83.8785 119.797 83.7888C119.887 83.6991 120.008 83.6476 120.135 83.6452H180.747C180.874 83.6476 180.995 83.6991 181.085 83.7888C181.175 83.8785 181.227 83.9994 181.229 84.1262C181.229 84.2537 181.179 84.376 181.088 84.4662C180.998 84.5564 180.875 84.6071 180.747 84.6071Z" fill="#D1D3D4"/>
<path d="M180.747 91.2829H120.135C120.007 91.2829 119.885 91.2322 119.794 91.142C119.704 91.0518 119.653 90.9295 119.653 90.8019C119.655 90.6752 119.707 90.5542 119.797 90.4646C119.887 90.3749 120.008 90.3234 120.135 90.321H180.747C180.874 90.3234 180.995 90.3749 181.085 90.4646C181.175 90.5542 181.227 90.6752 181.229 90.8019C181.229 90.9295 181.179 91.0518 181.088 91.142C180.998 91.2322 180.875 91.2829 180.747 91.2829Z" fill="#D1D3D4"/>
<path d="M106.133 139.764H106.037C105.975 139.753 105.916 139.729 105.864 139.695C105.811 139.66 105.766 139.616 105.731 139.564C105.696 139.512 105.672 139.453 105.66 139.392C105.647 139.331 105.648 139.267 105.66 139.206L106.847 133.252C106.862 133.172 106.897 133.097 106.95 133.035C107.002 132.972 107.07 132.924 107.146 132.896C107.223 132.869 107.306 132.861 107.386 132.872C107.467 132.884 107.544 132.915 107.61 132.963L110.505 135.118L114.316 130.876C112.7 128.812 110.894 126.902 108.922 125.172C107.228 123.708 105.292 122.55 103.2 121.747C100.95 122.811 98.4908 123.363 96.0006 123.363C93.5104 123.363 91.0514 122.811 88.8017 121.747C87.1079 122.425 85.4662 123.225 83.8898 124.142C81.5558 125.656 79.5641 127.638 78.0419 129.962L81.1589 134.137L84.6522 132.492C84.7181 132.459 84.7908 132.442 84.8645 132.442C84.9382 132.442 85.0109 132.459 85.0768 132.492C85.1437 132.527 85.2013 132.578 85.2449 132.64C85.2885 132.702 85.3169 132.773 85.3277 132.848L86.2927 139.216C86.3123 139.341 86.2817 139.468 86.2077 139.571C86.1336 139.673 86.022 139.743 85.897 139.764C85.7696 139.781 85.6405 139.749 85.5363 139.673C85.4322 139.598 85.3609 139.486 85.3373 139.36L84.4495 133.588L81.1879 135.128C81.0865 135.175 80.972 135.186 80.8633 135.16C80.7545 135.134 80.658 135.072 80.5895 134.983L77.0383 130.174C76.9818 130.095 76.9514 130.001 76.9514 129.904C76.9514 129.808 76.9818 129.713 77.0383 129.635C77.1541 129.452 79.8272 125.22 83.417 123.219C85.0987 122.214 86.8687 121.364 88.7052 120.679C88.7755 120.655 88.8507 120.648 88.9244 120.658C88.9982 120.668 89.0686 120.695 89.1298 120.737C89.1298 120.737 91.5134 122.315 95.991 122.315C100.469 122.315 102.842 120.756 102.862 120.737C102.922 120.696 102.99 120.669 103.062 120.657C103.133 120.645 103.207 120.65 103.277 120.67C105.58 121.492 107.708 122.738 109.549 124.344C111.677 126.209 113.617 128.277 115.339 130.52C115.41 130.607 115.448 130.716 115.448 130.828C115.448 130.94 115.41 131.048 115.339 131.136L110.968 136.003C110.885 136.091 110.773 136.147 110.652 136.159C110.532 136.172 110.411 136.14 110.312 136.07L107.696 134.146L106.654 139.341C106.648 139.403 106.63 139.463 106.6 139.518C106.571 139.573 106.531 139.621 106.482 139.661C106.434 139.7 106.378 139.73 106.318 139.747C106.258 139.765 106.195 139.771 106.133 139.764V139.764Z" fill="#D1D3D4"/>
<path d="M95.19 127.875C90.365 127.875 88.5026 121.613 88.435 121.343C88.4022 121.219 88.4191 121.088 88.4822 120.977C88.5453 120.865 88.6496 120.783 88.7728 120.747C88.8956 120.714 89.0265 120.729 89.138 120.79C89.2496 120.851 89.3331 120.953 89.3711 121.074C89.3711 121.132 91.0984 126.845 95.1611 126.913C99.6966 126.913 102.688 121.055 102.717 120.997C102.745 120.94 102.784 120.889 102.831 120.847C102.879 120.805 102.934 120.773 102.994 120.752C103.054 120.732 103.118 120.723 103.181 120.727C103.245 120.731 103.307 120.748 103.364 120.776C103.475 120.835 103.56 120.935 103.599 121.055C103.639 121.175 103.631 121.306 103.576 121.42C103.431 121.689 100.276 127.875 95.19 127.875Z" fill="#D1D3D4"/>
<path d="M177.649 96.006H160.434C158.723 96.006 157.336 97.3884 157.336 99.0938V99.1034C157.336 100.809 158.723 102.191 160.434 102.191H177.649C179.36 102.191 180.747 100.809 180.747 99.1034V99.0938C180.747 97.3884 179.36 96.006 177.649 96.006Z" fill="#67B93E"/>
<path d="M180.747 126.865H120.135C120.007 126.865 119.885 126.814 119.794 126.724C119.704 126.634 119.653 126.511 119.653 126.384C119.655 126.257 119.707 126.136 119.797 126.046C119.887 125.957 120.008 125.905 120.135 125.903H180.747C180.874 125.905 180.995 125.957 181.085 126.046C181.175 126.136 181.227 126.257 181.229 126.384C181.229 126.511 181.179 126.634 181.088 126.724C180.998 126.814 180.875 126.865 180.747 126.865Z" fill="#D1D3D4"/>
<path d="M169.041 133.54H120.135C120.007 133.54 119.885 133.49 119.794 133.4C119.704 133.309 119.653 133.187 119.653 133.059C119.655 132.933 119.707 132.812 119.797 132.722C119.887 132.632 120.008 132.581 120.135 132.578H169.041C169.169 132.581 169.29 132.632 169.38 132.722C169.47 132.812 169.521 132.933 169.524 133.059C169.524 133.187 169.473 133.309 169.383 133.4C169.292 133.49 169.169 133.54 169.041 133.54Z" fill="#D1D3D4"/>
<path d="M108.546 104.596H96.5796C96.4606 104.596 96.3458 104.552 96.2582 104.472C96.1705 104.392 96.1165 104.281 96.1068 104.163L95.4698 98.2184L94.4277 104.202C94.4092 104.313 94.3513 104.414 94.2646 104.486C94.1778 104.559 94.0679 104.597 93.9548 104.596H82.7415C82.6724 104.595 82.6041 104.581 82.541 104.552C82.4779 104.524 82.4213 104.483 82.3748 104.432C82.3296 104.382 82.2959 104.322 82.2759 104.257C82.2559 104.193 82.2501 104.124 82.259 104.057L84.8935 82.1446C84.9077 82.0273 84.9647 81.9193 85.0537 81.8412C85.1427 81.7632 85.2574 81.7205 85.376 81.7213H105.95C106.068 81.7225 106.181 81.7659 106.27 81.8436C106.358 81.9213 106.416 82.0281 106.432 82.1446L109.028 104.038C109.037 104.105 109.031 104.173 109.011 104.238C108.991 104.303 108.958 104.363 108.912 104.413C108.868 104.468 108.812 104.512 108.749 104.544C108.685 104.575 108.616 104.593 108.546 104.596V104.596ZM96.9656 103.634H107.957L105.477 82.6833H85.8006L83.2819 103.634H93.5398L95.1032 94.6689C95.1235 94.5559 95.1829 94.4536 95.271 94.3798C95.3592 94.306 95.4705 94.2653 95.5857 94.2649C95.7023 94.269 95.8136 94.3151 95.8987 94.3947C95.9839 94.4743 96.0372 94.5819 96.0489 94.6977L96.9656 103.634Z" fill="#D1D3D4"/>
<path d="M106.143 86.1943H84.9128C84.7848 86.1943 84.6621 86.1436 84.5716 86.0534C84.4811 85.9632 84.4303 85.8409 84.4303 85.7133C84.4303 85.5858 84.4811 85.4634 84.5716 85.3732C84.6621 85.283 84.7848 85.2324 84.9128 85.2324H106.143C106.271 85.2324 106.393 85.283 106.484 85.3732C106.574 85.4634 106.625 85.5858 106.625 85.7133C106.623 85.8401 106.571 85.961 106.481 86.0507C106.391 86.1404 106.27 86.1918 106.143 86.1943V86.1943Z" fill="#D1D3D4"/>
<path d="M98.085 88.9262C97.99 88.9245 97.8976 88.8954 97.8188 88.8425C97.7401 88.7896 97.6783 88.7151 97.6411 88.628L96.155 84.7995L94.0127 88.3683C93.9432 88.4746 93.8358 88.5507 93.7122 88.5811C93.5885 88.6115 93.4579 88.5938 93.3468 88.5318C93.2921 88.4992 93.2444 88.4561 93.2065 88.4049C93.1686 88.3538 93.1412 88.2957 93.1259 88.234C93.1107 88.1723 93.1079 88.1082 93.1176 88.0454C93.1274 87.9825 93.1495 87.9223 93.1828 87.8681L95.8172 83.4817C95.8599 83.4014 95.9264 83.3362 96.0075 83.2949C96.0887 83.2536 96.1806 83.2382 96.2708 83.2508C96.3611 83.2567 96.4478 83.2878 96.5212 83.3406C96.5945 83.3933 96.6516 83.4655 96.6858 83.549L98.6158 88.2817C98.6393 88.3404 98.6509 88.4032 98.6501 88.4664C98.6492 88.5297 98.6358 88.5921 98.6107 88.6502C98.5856 88.7082 98.5493 88.7608 98.5038 88.8049C98.4583 88.8489 98.4045 88.8836 98.3456 88.9069C98.2634 88.9426 98.1715 88.9494 98.085 88.9262Z" fill="#D1D3D4"/>
<path d="M101.53 136.58C101.007 136.58 100.496 136.426 100.061 136.136C99.6263 135.846 99.2874 135.435 99.0872 134.953C98.8871 134.471 98.8347 133.941 98.9368 133.43C99.0388 132.919 99.2906 132.449 99.6604 132.081C100.03 131.712 100.501 131.461 101.014 131.359C101.527 131.258 102.059 131.31 102.542 131.509C103.025 131.709 103.438 132.047 103.729 132.48C104.019 132.914 104.174 133.423 104.174 133.944C104.174 134.291 104.106 134.633 103.973 134.953C103.84 135.273 103.645 135.563 103.4 135.808C103.154 136.053 102.863 136.247 102.542 136.379C102.221 136.512 101.877 136.58 101.53 136.58ZM101.53 132.271C101.198 132.271 100.873 132.369 100.597 132.553C100.321 132.737 100.106 132.998 99.9788 133.304C99.8517 133.61 99.8184 133.946 99.8832 134.271C99.948 134.596 100.108 134.894 100.343 135.128C100.578 135.362 100.877 135.521 101.202 135.586C101.528 135.651 101.866 135.617 102.173 135.491C102.479 135.364 102.742 135.15 102.926 134.874C103.111 134.599 103.209 134.275 103.209 133.944C103.209 133.725 103.166 133.507 103.081 133.304C102.997 133.101 102.873 132.916 102.717 132.761C102.561 132.605 102.376 132.482 102.173 132.398C101.969 132.314 101.751 132.271 101.53 132.271V132.271Z" fill="#D1D3D4"/>
<path d="M19.5147 208.956H52.5273L48.9086 161.215H15.896L19.5147 208.956Z" fill="#231F20"/>
<path d="M8.85145 208.956H41.8641L48.9086 161.215H15.896L8.85145 208.956Z" fill="white"/>
<path d="M41.8641 209.398H8.85144C8.78875 209.398 8.72682 209.384 8.67009 209.358C8.61336 209.331 8.56325 209.292 8.52335 209.244C8.48106 209.198 8.4496 209.143 8.43124 209.083C8.41289 209.023 8.40809 208.96 8.4172 208.898L15.4617 161.148C15.4737 161.042 15.5251 160.945 15.6055 160.876C15.6859 160.806 15.7896 160.769 15.8959 160.773H48.87C48.9325 160.774 48.994 160.788 49.0505 160.815C49.1071 160.841 49.1574 160.879 49.1981 160.926C49.2404 160.973 49.2718 161.028 49.2902 161.088C49.3086 161.148 49.3133 161.211 49.3042 161.273L42.2597 209.023C42.2468 209.121 42.2005 209.212 42.1285 209.28C42.0565 209.348 41.9631 209.39 41.8641 209.398V209.398ZM9.36289 208.523H41.4781L48.3971 161.648H16.2819L9.36289 208.523Z" fill="#231F20"/>
<path d="M36.9909 203.232H14.13C14.0606 203.23 13.9924 203.213 13.9297 203.184C13.867 203.154 13.8112 203.111 13.7659 203.059C13.7205 203.006 13.6866 202.945 13.6662 202.879C13.6458 202.813 13.6395 202.743 13.6475 202.674L19.4375 165.784C19.4539 165.671 19.5108 165.568 19.5978 165.494C19.6847 165.419 19.7958 165.379 19.9103 165.38H43.0704C43.1395 165.381 43.2077 165.396 43.2708 165.424C43.3339 165.452 43.3905 165.493 43.4371 165.544C43.4806 165.599 43.5124 165.662 43.5306 165.73C43.5489 165.798 43.5532 165.869 43.5432 165.938L37.3865 202.828C37.3717 202.928 37.3255 203.021 37.2544 203.094C37.1833 203.167 37.0911 203.215 36.9909 203.232ZM14.7283 202.27H36.5759L42.5782 166.342H20.3832L14.7283 202.27Z" fill="#D1D3D4"/>
<path d="M37.3961 175.009H23.2685C23.1406 175.009 23.0179 174.958 22.9274 174.868C22.8369 174.778 22.786 174.656 22.786 174.528C22.786 174.401 22.8369 174.278 22.9274 174.188C23.0179 174.098 23.1406 174.047 23.2685 174.047H37.3961C37.5241 174.047 37.6468 174.098 37.7373 174.188C37.8278 174.278 37.8786 174.401 37.8786 174.528C37.8762 174.655 37.8246 174.776 37.7346 174.866C37.6446 174.955 37.5233 175.007 37.3961 175.009V175.009Z" fill="#D1D3D4"/>
<path d="M34.6459 180.559H22.4483C22.3211 180.557 22.1998 180.506 22.1098 180.416C22.0199 180.326 21.9683 180.205 21.9658 180.078C21.9658 179.951 22.0166 179.829 22.1071 179.738C22.1976 179.648 22.3203 179.598 22.4483 179.598H34.6459C34.7739 179.598 34.8966 179.648 34.9871 179.738C35.0776 179.829 35.1284 179.951 35.1284 180.078C35.1284 180.206 35.0776 180.328 34.9871 180.419C34.8966 180.509 34.7739 180.559 34.6459 180.559Z" fill="#D1D3D4"/>
<path d="M35.7556 186.514H21.628C21.5001 186.514 21.3774 186.463 21.2869 186.373C21.1964 186.283 21.1455 186.16 21.1455 186.033C21.1455 185.905 21.1964 185.783 21.2869 185.693C21.3774 185.603 21.5001 185.552 21.628 185.552H35.7556C35.8836 185.552 36.0063 185.603 36.0968 185.693C36.1873 185.783 36.2381 185.905 36.2381 186.033C36.2381 186.16 36.1873 186.283 36.0968 186.373C36.0063 186.463 35.8836 186.514 35.7556 186.514Z" fill="#D1D3D4"/>
<path d="M33.0151 192.064H20.8078C20.6798 192.064 20.5571 192.013 20.4666 191.923C20.3761 191.833 20.3253 191.711 20.3253 191.583C20.3278 191.456 20.3794 191.335 20.4694 191.246C20.5593 191.156 20.6806 191.105 20.8078 191.102H33.0151C33.1422 191.105 33.2635 191.156 33.3535 191.246C33.4435 191.335 33.4951 191.456 33.4976 191.583C33.4976 191.711 33.4467 191.833 33.3562 191.923C33.2657 192.013 33.143 192.064 33.0151 192.064Z" fill="#D1D3D4"/>
</svg>
